<svg xmlns="http://www.w3.org/2000/svg" viewBox="0 0 836.62 412.09"><defs><style>.cls-1{fill:#005642;}.cls-2{fill:#fff;}.cls-3{fill:#f89d1f;}.cls-4{fill:#ef6e23;}.cls-5{fill:#ea4e40;}.cls-6{fill:#a6ce40;}</style></defs><g id="Layer_2" data-name="Layer 2"><g id="Layer_1-2" data-name="Layer 1"><path class="cls-1" d="M111.38,190.67q-1.78,15.5-3.28,32.86t-2.38,35.14q-.89,17.77-1.29,35.14t0,32.86l-20.85.2V311.48q0-8.24.2-16.58t.4-16.58q.19-8.24.4-15.38-14.89,1.4-30,2.38t-30.38,1.59q.41,13.69.9,27.5T27,321.9L6.35,323.49Q5.16,309.8,4.57,295.8t-1-27.7H.79L0,248.64a5,5,0,0,1,1.79-.39H3.57q.2-6.75.4-14.6t.6-15.88q.39-8,.89-15.88T6.75,187.1l20.45,1.39q-.6,6.56-1.09,14.19t-.9,15.39q-.39,7.74-.59,15.19t-.4,14q15.49-.58,30.87-1.78t30.68-2.58q.39-6,.89-12.91t1.09-14.19q.6-7.24,1.29-14.2t1.49-12.9Z"/><path class="cls-1" d="M111.77,263.53a42,42,0,0,1,11.42-14.89A45.35,45.35,0,0,1,139,240.11a45.82,45.82,0,0,1,17.47-1.79A40.23,40.23,0,0,1,173,243.48a38.74,38.74,0,0,1,13.1,12.71q5.46,8.34,6.85,20.65a55.28,55.28,0,0,1-.49,11.91,50.84,50.84,0,0,1-3.08,11.41,48.8,48.8,0,0,1-5.66,10.33,38.58,38.58,0,0,1-8.24,8.44A35.84,35.84,0,0,1,162.4,325,43.65,43.65,0,0,1,148,326a47,47,0,0,1-14.2-3.67,40.74,40.74,0,0,1-12.31-8.14,38.89,38.89,0,0,1-8.34-11,46.48,46.48,0,0,1-4.37-13,49.8,49.8,0,0,1-.49-13.7A39.63,39.63,0,0,1,111.77,263.53Zm18.07,25.22q1.59,8.73,6.95,12.8a20.21,20.21,0,0,0,11.91,4.27,24,24,0,0,0,12.81-3.37,22.94,22.94,0,0,0,9.43-10.13,31.44,31.44,0,0,0,2.68-8.73,28.48,28.48,0,0,0,0-8.84,21.51,21.51,0,0,0-3.08-8,18.89,18.89,0,0,0-6.35-6.15,19.71,19.71,0,0,0-12.31-2.49,26.75,26.75,0,0,0-12.71,4.67,21.33,21.33,0,0,0-8.24,11.52A31.1,31.1,0,0,0,129.84,288.75Z"/><path class="cls-1" d="M314.08,242.69a29,29,0,0,1,12,8.63,48.17,48.17,0,0,1,7.84,13.6,90.12,90.12,0,0,1,4.57,16.78q1.59,9,2.28,18.17t.8,17.76q.09,8.64.29,15.59l-20.64.4q0-4.17-.3-10.13t-.7-12.41q-.39-6.45-1.09-12.9t-1.49-11.81q-2.17-14.49-6.55-19.56T302,263.73q-4.77,2-9,9.63a63.64,63.64,0,0,0-6.46,18.37q-1.59,8.73-2.78,17.17t-1.78,17.17l-21.05.8c0-2.65,0-5.69-.1-9.14s-.17-7-.3-10.81-.33-7.55-.59-11.32-.6-7.31-1-10.62q-1.59-11.52-5.16-16.09t-7.85-3.67q-4.26.9-8.53,6.55a47.33,47.33,0,0,0-7,14.8,88.71,88.71,0,0,0-3.38,19.85,119.82,119.82,0,0,0,.6,20.65l-28.19,2-4.57-95.89,20.85-1,1.58,33.55a36.06,36.06,0,0,1,11.32-16.18A33.17,33.17,0,0,1,245,242.09a25.69,25.69,0,0,1,16.68,3.38q7.93,4.56,11.91,16.08a32.7,32.7,0,0,1,6.75-10,37.09,37.09,0,0,1,9.83-7.24,32.08,32.08,0,0,1,11.61-3.38A26.55,26.55,0,0,1,314.08,242.69Z"/><path class="cls-1" d="M366.69,290.93c.79,5,2.61,9,5.46,11.91a19.82,19.82,0,0,0,10.32,5.66,29,29,0,0,0,13.21-.49A43.92,43.92,0,0,0,410,301.26l13.1,15.68a50.14,50.14,0,0,1-15.38,9.13,55.08,55.08,0,0,1-18.07,3.68,45.52,45.52,0,0,1-18-3.08,38.37,38.37,0,0,1-15.28-10.92,42,42,0,0,1-9.83-20.15,52.11,52.11,0,0,1,.59-22.14,52.73,52.73,0,0,1,9.93-20.15,46.21,46.21,0,0,1,18.17-14,57.6,57.6,0,0,1,13.2-4,34.36,34.36,0,0,1,13,.1,24.92,24.92,0,0,1,11,5.36q4.86,4.08,7.25,11.81a27.15,27.15,0,0,1,.2,14.89A26.12,26.12,0,0,1,411.16,281a42,42,0,0,1-9.83,5.95A52.12,52.12,0,0,1,390,290.44a72.63,72.63,0,0,1-11.92,1.19A70.65,70.65,0,0,1,366.69,290.93Zm20.65-20.84q7.14-1.59,9.73-4.17t1.88-4.87q-.69-2.28-4-3.67a13.4,13.4,0,0,0-8-.4,22,22,0,0,0-10,4.87,37.36,37.36,0,0,0-7.44,8.83,55.25,55.25,0,0,0,8.83.5A48,48,0,0,0,387.34,270.09Z"/><path class="cls-1" d="M543,242.69a29.11,29.11,0,0,1,12,8.63,48.41,48.41,0,0,1,7.84,13.6,90.89,90.89,0,0,1,4.57,16.78q1.58,9,2.28,18.17t.79,17.76q.1,8.64.3,15.59l-20.65.4q0-4.17-.3-10.13c-.19-4-.43-8.1-.69-12.41s-.63-8.6-1.09-12.9-1-8.24-1.49-11.81q-2.19-14.49-6.55-19.56t-9.14-3.08q-4.75,2-9,9.63a63.35,63.35,0,0,0-6.45,18.37q-1.59,8.73-2.78,17.17t-1.79,17.17l-21,.8c0-2.65,0-5.69-.1-9.14s-.17-7-.3-10.81-.33-7.55-.59-11.32-.6-7.31-1-10.62q-1.59-11.52-5.16-16.09t-7.84-3.67q-4.28.9-8.54,6.55a47.55,47.55,0,0,0-7.05,14.8,89.28,89.28,0,0,0-3.37,19.85,119.82,119.82,0,0,0,.59,20.65l-28.19,2-4.56-95.89,20.84-1,1.59,33.55a36,36,0,0,1,11.32-16.18,33.17,33.17,0,0,1,16.48-7.45,25.65,25.65,0,0,1,16.67,3.38q7.95,4.56,11.91,16.08a32.56,32.56,0,0,1,6.76-10,37,37,0,0,1,9.82-7.24,32.13,32.13,0,0,1,11.62-3.38A26.57,26.57,0,0,1,543,242.69Z"/><path class="cls-1" d="M629,216.28q9.72,0,16.58,3.58A33.5,33.5,0,0,1,657,229.49a47.06,47.06,0,0,1,7.14,14.09,97,97,0,0,1,3.77,17.08,152.39,152.39,0,0,1,1.29,18.66q.11,9.63-.19,18.56t-.9,16.88q-.59,7.94-.59,13.89l-12.71-1.19a104.58,104.58,0,0,1-19.36,4.87,86.34,86.34,0,0,1-20.74.49,65.62,65.62,0,0,1-14-2.78,46.33,46.33,0,0,1-13-6.35,33.44,33.44,0,0,1-10.82-12.61A28,28,0,0,1,574,296.49a26.58,26.58,0,0,1,5.46-13.9q4.86-6.54,14.39-10.32a56.69,56.69,0,0,1,26.8-3.57,108,108,0,0,1,27.2,6.15,115.46,115.46,0,0,0-.79-13.1,43.9,43.9,0,0,0-3.57-13.11,21,21,0,0,0-6.66-8.23,15.23,15.23,0,0,0-8.63-3,17.63,17.63,0,0,0-9,2.38,22.31,22.31,0,0,0-7.84,7.84,51.77,51.77,0,0,0-4,7.45c-1.19,2.71-2.32,5.59-3.37,8.63l-19.66-5.56a82.61,82.61,0,0,1,6.06-15,58.37,58.37,0,0,1,9.53-13.4,48.55,48.55,0,0,1,12.9-9.72A34.46,34.46,0,0,1,629,216.28Zm-13.7,72.87q-11.12,0-15.29,3.37t-3.07,7.55q1.08,4.15,6.85,7.94t14.69,4.36a63,63,0,0,0,14.49-.89,115.78,115.78,0,0,0,14.89-3.67,33.22,33.22,0,0,0,.4-5.16v-5.37a101.74,101.74,0,0,0-15.88-6.15A52,52,0,0,0,615.25,289.15Z"/><path class="cls-1" d="M777.26,199.61a39.73,39.73,0,0,1-1.49,15.08A80,80,0,0,1,769,231.37a89.09,89.09,0,0,1-10.72,15.69A58.92,58.92,0,0,1,744.7,259a279.54,279.54,0,0,0,4.07,47.65,315.15,315.15,0,0,0,13,49.43l-19.85,7.15q-4-10.53-6.75-20.85t-5-21a52.2,52.2,0,0,1-11.81,6.75,43.2,43.2,0,0,1-13.7,3.27,36.11,36.11,0,0,1-13.8-1.68,27.79,27.79,0,0,1-12.11-8.14A37.34,37.34,0,0,1,671.93,310a43.48,43.48,0,0,1-2.78-13.6,45.05,45.05,0,0,1,1.69-14.09A40.2,40.2,0,0,1,677,269.49a39,39,0,0,1,8.93-8.83,39.47,39.47,0,0,1,11.22-5.56,36.72,36.72,0,0,1,12.7-1.59,39,39,0,0,1,13.6,3.27q0-7.33.4-15.38t1.59-16.08a126.57,126.57,0,0,1,3.37-15.79,71.35,71.35,0,0,1,6-14.69A33.73,33.73,0,0,1,746,181.74q6.84-4.58,13.4-4.37a16.61,16.61,0,0,1,11.71,5.56Q776.26,188.29,777.26,199.61ZM704.2,274.26a15.18,15.18,0,0,0-8.44,4.46,22.58,22.58,0,0,0-4.87,7.94,24.35,24.35,0,0,0-1.39,9.24,19.66,19.66,0,0,0,2.29,8.63,14.54,14.54,0,0,0,5.85,6q3.78,2.08,9.34,1.09A25.83,25.83,0,0,0,718.29,306a33.65,33.65,0,0,0,7.94-8.74c-.26-2.11-.53-4.23-.79-6.35s-.47-4.17-.6-6.15a25.19,25.19,0,0,0-9.92-8.94A17.38,17.38,0,0,0,704.2,274.26Zm41.69-40.7a43.13,43.13,0,0,0,8-14.6,55,55,0,0,0,2.68-17.17,1.92,1.92,0,0,0-.4-1.39c-.26-.26-.73.13-1.39,1.19A74.47,74.47,0,0,0,747.48,224c-.27,1.58-.53,3.21-.8,4.86S746.15,232.1,745.89,233.56Z"/><path class="cls-1" d="M780.24,290.93c.79,5,2.61,9,5.46,11.91A19.82,19.82,0,0,0,796,308.5a29,29,0,0,0,13.2-.49,44,44,0,0,0,14.3-6.75l13.1,15.68a50.19,50.19,0,0,1-15.39,9.13,55.08,55.08,0,0,1-18.06,3.68,45.46,45.46,0,0,1-18-3.08,38.4,38.4,0,0,1-15.29-10.92,42.08,42.08,0,0,1-9.83-20.15,52.18,52.18,0,0,1,10.53-42.29,46.17,46.17,0,0,1,18.16-14,57.83,57.83,0,0,1,13.21-4,34.36,34.36,0,0,1,13,.1,25,25,0,0,1,11,5.36q4.86,4.08,7.25,11.81a27.15,27.15,0,0,1,.19,14.89A26,26,0,0,1,824.71,281a42.16,42.16,0,0,1-9.83,5.95,52,52,0,0,1-11.32,3.48,72.4,72.4,0,0,1-11.91,1.19A70.58,70.58,0,0,1,780.24,290.93Zm20.64-20.84q7.15-1.59,9.73-4.17t1.89-4.87q-.71-2.28-4-3.67a13.42,13.42,0,0,0-8-.4,21.93,21.93,0,0,0-10,4.87,37.13,37.13,0,0,0-7.44,8.83,55.12,55.12,0,0,0,8.83.5A47.77,47.77,0,0,0,800.88,270.09Z"/><path class="cls-1" d="M610.84,391.35c0,7.47-4.15,12.39-10.57,12.39-4.67,0-7.86-2.31-9.21-6.12-.58,1.83-1.21,3.66-1.79,5.5h-3.66a71,71,0,0,0,.24-8v-19c0-1.16-.19-1.45-.82-1.45h-2.22v-3.62h3.86a30.39,30.39,0,0,0,5.69-.48v13.46a8.41,8.41,0,0,1,8.2-5.07C606.89,379,610.84,383.87,610.84,391.35Zm-12.64-8.26c-3.47,0-5.84,2.66-5.84,7.92v.72c0,5.21,2.41,7.91,5.84,7.91s5.89-2.7,5.89-7.91V391C604.09,385.8,601.77,383.09,598.2,383.09Z"/><path class="cls-1" d="M638.11,379.62v3.62h-1.88c-.78,0-1,.15-1.45,1.25L627,403.12c-2.56,6.17-5,9-10.08,9-3.67,0-6.27-1.78-6.27-5,0-2.55,1.54-4.19,4-4.19,2.08,0,3.38,1.25,3.38,3a5,5,0,0,1-.73,2.41c2.22-.15,3.67-1.79,5-4.83l.29-.67v-.15l-8.39-18.19c-.49-1.06-.73-1.25-1.35-1.25h-1.6v-3.62h12.45v3.62h-1.83c-.87,0-1.11.63-.77,1.4L626.24,396l4.63-11.28c.44-1.07-.1-1.5-.92-1.5H628v-3.62Z"/><path class="cls-1" d="M656,392.6c.15,4.39,2.32,7.28,6.71,7.28,3.33,0,5.26-1.68,6.37-4.53l3.67,1.64c-1.31,3.76-4.49,6.75-10.57,6.75-8.54,0-12.83-5.16-12.83-12.39s5-12.36,12.2-12.36c7.43,0,11.53,4.64,11.53,12.4v1.21Zm-.09-3.28h10.61c0-4.73-1.54-6.61-5-6.61S656.21,384.69,655.92,389.32Z"/><path class="cls-1" d="M702.82,403.12h-8.64l-.33-4.59c-1.31,3.24-4,5.21-8.3,5.21-6.42,0-10.57-4.92-10.57-12.39S679.23,379,685.5,379c4,0,6.61,1.69,8,4.73v-7.57c0-1.16-.19-1.45-.82-1.45h-2.27v-3.62h4a29.15,29.15,0,0,0,5.59-.48v27.65c0,1.1.29,1.25.82,1.25h2Zm-15.2-20c-3.57,0-5.88,2.71-5.88,7.92v.72c0,5.21,2.31,7.91,5.88,7.91s5.84-2.65,5.84-7.91V391C693.46,385.8,691.05,383.09,687.62,383.09Z"/><path class="cls-1" d="M710.36,392.6c.14,4.39,2.31,7.28,6.7,7.28,3.33,0,5.26-1.68,6.37-4.53L727.1,397c-1.31,3.76-4.49,6.75-10.57,6.75-8.54,0-12.83-5.16-12.83-12.39s5-12.36,12.2-12.36c7.43,0,11.53,4.64,11.53,12.4v1.21Zm-.1-3.28h10.61c0-4.73-1.54-6.61-5-6.61S710.55,384.69,710.26,389.32Z"/><path class="cls-1" d="M756.77,403.12H744.62V399.5h1.88c.53,0,.82-.15.82-1.25V387.92c0-3.28-1.21-4.68-3.86-4.68-3.23,0-5.12,2.41-5.12,7.67v7.34c0,1.1.29,1.25.82,1.25h1.89v3.62H728.89V399.5H731c.53,0,.82-.15.82-1.25V384.69c0-1.16-.19-1.45-.82-1.45h-2.12v-3.62h3.76a29.19,29.19,0,0,0,5.6-.48v4.68c1.49-3.28,4.24-4.83,8-4.83,5,0,7.62,2.9,7.62,8.79v10.47c0,1.1.29,1.25.82,1.25h2.12Z"/><path class="cls-1" d="M768.27,399.5h2.17c.48,0,.77-.15.77-1.25v-22.1c0-1.16-.19-1.45-.77-1.45h-2.27v-3.62h4a30.2,30.2,0,0,0,5.64-.48v27.65c0,1.1.29,1.25.77,1.25h1.93v3.62h-12.2Z"/><path class="cls-1" d="M782.17,399.5h2.17c.53,0,.77-.24.77-1.25V385.17c0-1.5-.24-1.93-1.06-1.93h-1.88v-3.62H786a30.2,30.2,0,0,0,5.64-.48v19.11c0,1,.24,1.25.77,1.25h2v3.62h-12.3Zm2.12-26a3.87,3.87,0,0,1,4.05-3.95,4,4,0,1,1,0,7.91A3.88,3.88,0,0,1,784.29,373.49Z"/><path class="cls-1" d="M805.42,377.89v1.73h4.3v3.62h-4.2v15c0,1.1.29,1.25.82,1.25h2.51v3.62H796.16V399.5h2.12c.53,0,.82-.15.82-1.25v-15h-3.18v-3.62h3.18v-1.69c0-5.69,2.17-7.77,7.43-7.77a9,9,0,0,1,4.1.87v3.53a4.83,4.83,0,0,0-2-.44C806.29,374.12,805.42,374.85,805.42,377.89Z"/><path class="cls-1" d="M817.1,392.6c.15,4.39,2.32,7.28,6.71,7.28,3.33,0,5.26-1.68,6.37-4.53l3.66,1.64c-1.3,3.76-4.48,6.75-10.56,6.75-8.54,0-12.84-5.16-12.84-12.39s5-12.36,12.21-12.36c7.43,0,11.53,4.64,11.53,12.4v1.21Zm-.09-3.28h10.61c0-4.73-1.54-6.61-5-6.61S817.29,384.69,817,389.32Z"/><path class="cls-2" d="M681.69,0c-14.61.78-28.13,11.83-34.62,27.84-.78-1-13.21-16.15-32.07-14.08C599.56,15.51,586.51,28,583.52,44.69c-2.09-2.78-17-22-42.06-22.88C518.7,21,496.93,35.62,487.34,58.62,476.05,37,459.8,22.11,445.09,21.81a54.41,54.41,0,0,0-11.15,1.24,50.83,50.83,0,0,0-24.07,13,51.68,51.68,0,0,0-35.42-14.2h-5.7c-5.59,0-23.88.72-36.45,14.15C321.55,47.44,320.79,62,320.46,68.24c-1.93,36.85,43.42,107.66,118,136.56,84.87,32.88,180.87,1.19,232-51.52a173.66,173.66,0,0,0,11.84-13.52c.46-.37.9-.73,1.32-1.09a14.86,14.86,0,0,0,2.4-20.4l-2.18-2.88A30.16,30.16,0,0,0,694,90.21c19-9.41,30.4-28.6,28.68-48C720.85,21.37,703.68-1.12,681.69,0Z"/><path class="cls-1" d="M362.58,39.13h6.93a27.87,27.87,0,0,1,26.82,20.22c10.05,35.18,38,104.82,103.14,114.17,89.75,12.89,144.45-23.86,164.16-40.64A.77.77,0,0,1,664.7,134c-22.14,25.36-94.09,93.85-202.72,61.86C385.34,173.26,351.2,115.75,336.52,77A27.93,27.93,0,0,1,362.58,39.13Z"/><path class="cls-3" d="M684.5,106.79s-95.73,94.54-195.6,47.33c-40.61-19.19-61.11-52.14-71.33-77.86a27.13,27.13,0,0,1,25.24-37.13h0a27.2,27.2,0,0,1,26.27,20.34c6.76,25.63,24.56,68.1,69.78,82.52C592.11,159,684.5,106.79,684.5,106.79Z"/><path class="cls-4" d="M543.28,39.13h0a43,43,0,0,1,38.13,22.81c3.68,7,8.46,14.35,14.4,20.22a55.05,55.05,0,0,0,17.91,11.92c14,5.77,12.88,25.91-1.6,30.36-27.43,8.43-57.94,11.53-84.15-1.06a71.75,71.75,0,0,1-9.41-5.42C483.49,94.15,500.89,39.13,543.28,39.13Z"/><path class="cls-5" d="M638.78,37l36.51,46.36a6,6,0,0,1-2.71,9.36c-14.49,5-47,10.5-71.52-27.9q-.66-1-1.26-2.07C585.43,37.86,621,14.42,638.78,37Z"/><circle class="cls-6" cx="684.5" cy="39.13" r="22.95"/></g></g></svg>