<svg id="Layer_2" data-name="Layer 2" xmlns="http://www.w3.org/2000/svg" viewBox="0 0 164 44"><defs><style>.cls-1{fill:#fff;}</style></defs><title>logo</title><path class="cls-1" d="M6.852,42.706H0L7.749,0H19.211l9.605,31.382L34,0h6.852L33.107,42.706H21.645L12.039,11.259Z"/><path class="cls-1" d="M71.914,34.488a19.453,19.453,0,0,0-.32,2.718,3.147,3.147,0,0,0,.609,2.005,2.342,2.342,0,0,0,1.824.842A4.574,4.574,0,0,1,71.659,43a8.369,8.369,0,0,1-4.036,1,6.3,6.3,0,0,1-3.457-.938,4.357,4.357,0,0,1-1.921-2.75,9.133,9.133,0,0,1-3.938,2.75A14.923,14.923,0,0,1,52.959,44q-5.187,0-7.492-3.17t-2.305-9.253a30.177,30.177,0,0,1,2.145-11.485,19.489,19.489,0,0,1,6.435-8.477,16.742,16.742,0,0,1,10.31-3.2,16.187,16.187,0,0,1,6.468,1.3l8.261-1.035ZM63.845,12.683a7.564,7.564,0,0,0-2.305-.389A5.268,5.268,0,0,0,56.8,15.367a30.761,30.761,0,0,0-2.818,9.48,50.17,50.17,0,0,0-1.153,9.705,8.6,8.6,0,0,0,.768,3.979,2.837,2.837,0,0,0,2.754,1.456,4.868,4.868,0,0,0,4.354-2.75,19.282,19.282,0,0,0,2.241-6.5l3.01-16.888A5.929,5.929,0,0,0,63.845,12.683Z"/><path class="cls-1" d="M103.548,8.411A9.6,9.6,0,0,1,108.9,9.739a6.9,6.9,0,0,1,2.785,4.173A10.533,10.533,0,0,1,116.2,9.739a14.352,14.352,0,0,1,6.245-1.328q4.226,0,6.467,2.007a7.58,7.58,0,0,1,2.242,5.952,23.422,23.422,0,0,1-.545,4.79q-0.545,2.587-1.7,7.311-0.9,3.365-1.313,5.305a15.729,15.729,0,0,0-.416,3.171,3.638,3.638,0,0,0,.576,2.2,2.494,2.494,0,0,0,1.858.906A4.822,4.822,0,0,1,127.21,43a8.441,8.441,0,0,1-4.131,1,5.9,5.9,0,0,1-4.227-1.456,5.651,5.651,0,0,1-1.537-4.3A22.242,22.242,0,0,1,117.8,34q0.48-2.428,1.5-6.762,0.9-3.818,1.377-6.147a19.9,19.9,0,0,0,.48-3.882,4.434,4.434,0,0,0-.8-2.783,2.851,2.851,0,0,0-2.4-1.035q-4.867,0-6.852,10.483l-3.586,18.829L97.464,43.741l3.458-16.759c0.043-.172.085-0.356,0.129-0.55s0.085-.442.128-0.744,0.277-1.5.7-3.592a26.367,26.367,0,0,0,.64-4.949,4.3,4.3,0,0,0-.8-2.75,2.965,2.965,0,0,0-2.466-1,4.9,4.9,0,0,0-4.514,3.041,27.322,27.322,0,0,0-2.4,7.441l-3.65,18.829L78.7,43.741,85.3,9.706l8.2-1.035-0.9,6.083Q95.864,8.413,103.548,8.411Z"/><path class="cls-1" d="M164,16.047a9.361,9.361,0,0,1-4.707,8.348q-4.708,2.977-12.776,2.976h-2.242a30.4,30.4,0,0,0-.192,3.3,7.869,7.869,0,0,0,1.282,4.886q1.28,1.65,4.354,1.65a10.665,10.665,0,0,0,4.994-1.2,8.276,8.276,0,0,0,3.522-3.4,2.819,2.819,0,0,1,1.537,2.847,6.34,6.34,0,0,1-1.761,4.3,11.824,11.824,0,0,1-4.772,3.106A18.609,18.609,0,0,1,146.646,44q-5.956,0-9.094-3.332t-3.138-10.192a26.652,26.652,0,0,1,2.209-10.806,19.062,19.062,0,0,1,6.66-8.152A18.6,18.6,0,0,1,154.2,8.411Q164,8.411,164,16.047Zm-16.138-.712a26.3,26.3,0,0,0-3.138,9.06A12.4,12.4,0,0,0,152.473,22a7.714,7.714,0,0,0,3.139-6.471q0-3.621-2.818-3.623T147.862,15.335Z"/></svg>