<?xml version="1.0" encoding="utf-8"?>
<!-- Generator: Adobe Illustrator 19.2.1, SVG Export Plug-In . SVG Version: 6.00 Build 0)  -->
<svg version="1.1" id="layer" xmlns="http://www.w3.org/2000/svg" xmlns:xlink="http://www.w3.org/1999/xlink" x="0px" y="0px"
	 viewBox="0 0 652 652" style="enable-background:new 0 0 652 652;" xml:space="preserve">
<style type="text/css">
	.st0{fill:#E9530E;}
	.st1{fill:#263746;}
</style>
<g id="Homepage">
	<g id="Group-12" transform="translate(-30.000000, -15.000000)">
		<g transform="translate(30.000000, 15.000000)">
			<path id="Shape" class="st0" d="M86.3,347L86.3,347c1.5,1.5,6,6,26.7,6s25.2-4.5,26.7-6c1.5-1.5,6-6,6-26.7
				c0-20.7-4.5-25.2-6-26.7c-1.5-1.5-6-6-26.7-6s-25.2,4.5-26.7,6s-6,6-6,26.7C80.3,341,84.8,345.5,86.3,347z M69.8,277.2
				c7.2-7.2,24.2-11.8,43.4-11.8s36.2,4.6,43.4,11.8c7.2,7.2,11.8,24.2,11.8,43.4c0,19.2-4.6,36.2-11.8,43.4
				c-7.2,7.2-24.2,11.8-43.4,11.8S77,371.1,69.8,364S58,339.8,58,320.6C58,301.4,62.6,284.4,69.8,277.2z M60.3,373.8
				c10.1,10.1,29.9,16.2,52.9,16.2s42.8-6,52.9-16.2c10.1-10.1,16.2-29.9,16.2-52.9c0-23-6-42.8-16.2-52.9
				c-10.1-10.1-29.9-16.2-52.9-16.2s-42.8,6-52.9,16.2s-16.2,29.9-16.2,52.9C44.2,343.9,50.2,363.7,60.3,373.8L60.3,373.8z
				 M20.7,320.6c0-51.1,41.4-92.5,92.5-92.5c50.6,0,91.8,40.7,92.5,91.2c0.7,51.7-42,94.4-93.7,93.7
				C61.4,412.3,20.7,371.2,20.7,320.6z M100.5,302.7h25.3c2.9,0,5.2,2.3,5.2,5.2v25.3c0,2.9-2.3,5.2-5.2,5.2h-25.3
				c-2.9,0-5.2-2.3-5.2-5.2v-25.3C95.3,305,97.6,302.7,100.5,302.7z"/>
			<rect id="Rectangle" x="248.8" y="293.3" class="st1" width="20.2" height="56.7"/>
			<path id="Path" class="st1" d="M279.8,350v-56.7h16l2.5,6.2c4.7-5,10.9-7.6,18.6-7.6c6.8,0,12.1,2.1,16.4,6.3
				c4.2,4.1,6.3,9.4,6.3,15.9V350h-20.2v-32.5c0-5.2-3.8-9.1-8.9-9.1c-6.3,0-10.5,4.5-10.5,11.2v30.3L279.8,350z"/>
			<path id="Path_1_" class="st1" d="M344.2,308.5v-15.2h9.5V288c0-6.1,2-10.9,5.8-14.6c4-3.7,9.2-5.5,15.5-5.5
				c4.8,0,9.5,0.6,14.1,1.8l-2.5,14.9c-2.2-0.4-4.4-0.6-6.6-0.7c-3.7,0-6.1,2.3-6.1,6.1v3.2h11.7v15.3h-11.7V350h-20.2v-41.5H344.2z
				"/>
			<path id="Shape_1_" class="st1" d="M420.5,335.8c6.9,0,11.8-5.8,11.8-14.1c0-8.4-4.9-14.2-11.8-14.2c-6.9,0-11.7,5.8-11.7,14.2
				C408.9,329.9,413.7,335.8,420.5,335.8 M397.3,300.2c6.1-5.6,13.8-8.4,23.3-8.4c9.5,0,17.3,2.8,23.3,8.4
				c6.1,5.5,9.1,12.6,9.1,21.4c0,8.7-3,15.8-9.1,21.4c-6,5.5-13.8,8.3-23.3,8.3c-9.5,0-17.2-2.8-23.3-8.3
				c-6.1-5.6-9.1-12.7-9.1-21.4C388.2,313,391.2,305.9,397.3,300.2"/>
			<path id="Shape_2_" class="st1" d="M478.6,324.7c0,6.3,4.1,10.9,10.2,10.9c6.5,0,11.2-5.7,11.2-13.9c0-8.2-4.7-14-11.2-14
				c-6.1,0-10.2,4.6-10.2,11V324.7z M458.8,350v-80.7H479v28c4.3-3.5,9.7-5.5,15.2-5.4c7.7,0,14,2.8,18.9,8.4
				c4.9,5.5,7.4,12.6,7.4,21.4c0,8.7-2.5,15.8-7.4,21.4c-4.9,5.5-11.2,8.3-18.9,8.3c-6.9,0-12.5-2.2-16.8-6.6l-2.5,5.3L458.8,350z"
				/>
			<path id="Shape_3_" class="st1" d="M527.9,293.3h20.2V350h-20.2V293.3z M538,266.8c6.9,0,11.6,4.8,11.6,11.6
				c0,6.5-4.7,11.5-11.6,11.5c-6.5,0-11.5-4.9-11.5-11.5C526.5,271.6,531.5,266.8,538,266.8L538,266.8z"/>
			<path id="Shape_4_" class="st1" d="M578.8,324.7c0,6.3,4.1,10.9,10.2,10.9c6.5,0,11.2-5.7,11.2-13.9c0-8.2-4.7-14-11.2-14
				c-6.1,0-10.2,4.6-10.2,11V324.7z M559,373.8v-80.6h16l2.5,5.3c4.4-4.5,10-6.6,16.8-6.6c7.7,0,14,2.8,18.9,8.4
				c4.9,5.5,7.4,12.6,7.4,21.4c0,8.7-2.5,15.8-7.4,21.4c-4.9,5.5-11.2,8.3-18.9,8.3c-5.6,0-10.9-1.9-15.2-5.4v27.8L559,373.8z"/>
			<rect id="Rectangle_1_" x="248.8" y="267.1" class="st1" width="20.2" height="20.2"/>
		</g>
	</g>
</g>
</svg>
